# File created by Blade
# Date/Time:  Tue Jan 27 18:05:41 2015
# Frame Rate: 120.000 fps
#------------------------------------------------------
:FULLY-SPECIFIED
:DEGREES
2922
root -1.285633 31.898057 -6.203336 7.713942 11.363223 3.278415
Spine -6.315988 -12.811917 -5.789726
Head -3.508142 -54.177979 2.510056
LeftShoulder -11.534933 15.132563 8.480710
LeftArm 25.774118 42.349371 -69.300404
LeftForeArm -2.477140 -0.000000 16.652906
LeftHand -11.164392 -0.000000 -4.481401
LeftHandThumb1 -26.253704 0.000000 33.147579
RightShoulder -11.129145 17.989113 -41.453562
RightArm 17.109966 44.750362 31.882572
RightForeArm 12.255297 -0.000000 14.565001
RightHand -16.963942 -0.000000 -2.968173
RightHandThumb1 -24.326973 -0.000000 -32.862282
LeftUpLeg -2.940120 -3.835573 -0.663005
LeftLeg 0.549158 -0.000000 -0.000000
LeftFoot -16.972725 15.577931 -24.561648
LeftToeBase 8.570124 -0.000000 -0.000000
RightUpLeg 0.715743 -6.997585 -3.307411
RightLeg -3.110053 -0.000000 0.000000
RightFoot -15.772096 -15.178652 10.706654
RightToeBase 4.916809 -0.000000 -0.000000
2923
root -1.287743 31.897410 -6.206213 7.706675 11.362092 3.271541
Spine -6.302936 -12.743833 -5.839465
Head -3.663766 -54.154941 2.657238
LeftShoulder -11.521413 15.117484 8.525916
LeftArm 25.853517 42.304153 -69.244682
LeftForeArm -2.503703 -0.000000 16.689744
LeftHand -11.089227 0.000000 -4.438206
LeftHandThumb1 -26.253704 0.000000 33.147579
RightShoulder -11.141768 17.892380 -41.455282
RightArm 17.477079 43.891195 31.959243
RightForeArm 13.475521 -0.000000 12.057333
RightHand -17.598542 -0.000000 -2.840620
RightHandThumb1 -24.326973 -0.000000 -32.862282
LeftUpLeg -2.940083 -3.836213 -0.654063
LeftLeg 0.550050 -0.000000 -0.000000
LeftFoot -16.989069 15.573592 -24.579272
LeftToeBase 8.609542 -0.000000 -0.000000
RightUpLeg 0.712573 -6.990062 -3.299262
RightLeg -3.105493 -0.000000 0.000000
RightFoot -15.768209 -15.177456 10.695424
RightToeBase 4.940785 -0.000000 -0.000000
2924
root -1.289866 31.897042 -6.208718 7.691987 11.369201 3.268154
Spine -6.269615 -12.666778 -5.889208
Head -3.824196 -54.131110 2.799667
LeftShoulder -11.499494 15.082612 8.562940
LeftArm 25.900838 42.243134 -69.204996
LeftForeArm -2.419395 -0.000000 16.753028
LeftHand -11.134171 -0.000000 -4.436987
LeftHandThumb1 -26.253704 0.000000 33.147579
RightShoulder -11.165929 17.834860 -41.487212
RightArm 17.773264 43.151671 32.132035
RightForeArm 14.588354 -0.000000 9.816845
RightHand -18.370732 -0.000000 -2.806690
RightHandThumb1 -24.326973 -0.000000 -32.862282
LeftUpLeg -2.928452 -3.818567 -0.649648
LeftLeg 0.544002 -0.000000 -0.000000
LeftFoot -16.985380 15.556999 -24.590994
LeftToeBase 8.612485 -0.000000 -0.000000
RightUpLeg 0.725158 -6.970774 -3.296106
RightLeg -3.108722 -0.000000 0.000000
RightFoot -15.767654 -15.191665 10.707718
RightToeBase 4.890007 -0.000000 -0.000000
2925
root -1.292609 31.897066 -6.211276 7.677152 11.387405 3.269058
Spine -6.242163 -12.597946 -5.936306
Head -3.984659 -54.107768 2.929043
LeftShoulder -11.469490 15.036955 8.592643
LeftArm 25.919490 42.163035 -69.174223
LeftForeArm -2.357545 -0.000000 16.830471
LeftHand -11.181034 -0.000000 -4.464093
LeftHandThumb1 -26.253704 0.000000 33.147579
RightShoulder -11.160755 17.833064 -41.561791
RightArm 17.905807 42.743212 32.452027
RightForeArm 15.785469 -0.000000 8.065605
RightHand -19.357777 -0.000000 -2.951756
RightHandThumb1 -24.326973 -0.000000 -32.862282
LeftUpLeg -2.921129 -3.803543 -0.646902
LeftLeg 0.544363 -0.000000 -0.000000
LeftFoot -16.965580 15.535657 -24.575529
LeftToeBase 8.600874 -0.000000 -0.000000
RightUpLeg 0.736465 -6.941351 -3.293807
RightLeg -3.101363 -0.000000 0.000000
RightFoot -15.790362 -15.214222 10.736362
RightToeBase 4.914221 -0.000000 -0.000000
2926
root -1.295924 31.897892 -6.213989 7.670263 11.428165 3.267341
Spine -6.219073 -12.553720 -5.978384
Head -4.128104 -54.070622 3.044862
LeftShoulder -11.448588 15.022759 8.609422
LeftArm 25.981264 42.089207 -69.100774
LeftForeArm -2.333055 -0.000000 16.918208
LeftHand -11.240044 -0.000000 -4.375110
LeftHandThumb1 -26.253704 0.000000 33.147579
RightShoulder -11.138221 17.834670 -41.612717
RightArm 17.903231 42.711240 32.919539
RightForeArm 16.889140 -0.000000 7.006149
RightHand -20.699017 -0.000000 -3.511978
RightHandThumb1 -24.326973 -0.000000 -32.862282
LeftUpLeg -2.925531 -3.783807 -0.636650
LeftLeg 0.543670 -0.000000 -0.000000
LeftFoot -16.930351 15.479728 -24.584802
LeftToeBase 8.596503 -0.000000 -0.000000
RightUpLeg 0.745873 -6.938869 -3.283788
RightLeg -3.104902 -0.000000 0.000000
RightFoot -15.782787 -15.253984 10.712296
RightToeBase 4.926929 -0.000000 -0.000000
2927
root -1.299214 31.899090 -6.217809 7.663266 11.486249 3.268218
Spine -6.189705 -12.523168 -6.012349
Head -4.283721 -54.023777 3.149809
LeftShoulder -11.427799 15.022346 8.611184
LeftArm 26.075758 42.015082 -69.005400
LeftForeArm -2.338403 -0.000000 16.980486
LeftHand -11.217742 -0.000000 -4.265996
LeftHandThumb1 -26.253704 0.000000 33.147579
RightShoulder -11.112694 17.997805 -41.702080
RightArm 17.681831 43.196142 33.585859
RightForeArm 17.605818 -0.000000 6.727901
RightHand -22.221997 -0.000000 -4.309341
RightHandThumb1 -24.326973 -0.000000 -32.862282
LeftUpLeg -2.930202 -3.816652 -0.626191
LeftLeg 0.538627 -0.000000 -0.000000
LeftFoot -16.900471 15.472960 -24.557890
LeftToeBase 8.612639 -0.000000 -0.000000
RightUpLeg 0.752424 -6.947052 -3.274764
RightLeg -3.101529 -0.000000 0.000000
RightFoot -15.780522 -15.288361 10.729929
RightToeBase 4.930837 -0.000000 -0.000000
2928
root -1.302343 31.900170 -6.220351 7.653806 11.551578 3.266039
Spine -6.159521 -12.505359 -6.037885
Head -4.441961 -53.972919 3.253121
LeftShoulder -11.416070 15.001895 8.621350
LeftArm 26.140588 41.970963 -68.925497
LeftForeArm -2.412693 -0.000000 17.052858
LeftHand -11.190229 -0.000000 -4.264220
LeftHandThumb1 -26.253704 0.000000 33.147579
RightShoulder -11.036790 17.835810 -41.613521
RightArm 17.638201 44.206892 34.390355
RightForeArm 18.350631 -0.000000 6.945346
RightHand -23.697918 -0.000000 -5.610866
RightHandThumb1 -24.326973 -0.000000 -32.862282
LeftUpLeg -2.927953 -3.815863 -0.615714
LeftLeg 0.525523 -0.000000 -0.000000
LeftFoot -16.866107 15.426433 -24.552837
LeftToeBase 8.620504 -0.000000 -0.000000
RightUpLeg 0.765275 -6.964174 -3.265858
RightLeg -3.094288 -0.000000 0.000000
RightFoot -15.798035 -15.293886 10.805672
RightToeBase 4.932925 -0.000000 -0.000000
2929
root -1.305985 31.902443 -6.225746 7.646909 11.650356 3.271837
Spine -6.107324 -12.506872 -6.067816
Head -4.651255 -53.966814 3.394281
LeftShoulder -11.400732 14.953383 8.630239
LeftArm 26.210391 41.948618 -68.828092
LeftForeArm -2.498624 -0.000000 17.116941
LeftHand -11.165733 -0.000000 -4.281742
LeftHandThumb1 -26.253704 0.000000 33.147579
RightShoulder -10.962242 17.976172 -41.532811
RightArm 17.292687 45.101293 34.971214
RightForeArm 18.723390 0.000000 7.397882
RightHand -24.907641 -0.000000 -6.922543
RightHandThumb1 -24.326973 -0.000000 -32.862282
LeftUpLeg -2.942049 -3.858862 -0.604344
LeftLeg 0.524278 -0.000000 -0.000000
LeftFoot -16.797678 15.391018 -24.544496
LeftToeBase 8.584072 -0.000000 -0.000000
RightUpLeg 0.777341 -7.000217 -3.254057
RightLeg -3.093502 -0.000000 0.000000
RightFoot -15.780837 -15.375164 10.773132
RightToeBase 4.918106 -0.000000 -0.000000
2930
root -1.307491 31.903109 -6.227221 7.651298 11.723564 3.263284
Spine -6.103446 -12.474191 -6.059795
Head -4.769683 -53.962648 3.405180
LeftShoulder -11.362471 14.951190 8.639494
LeftArm 26.287775 41.931677 -68.739742
LeftForeArm -2.505137 0.000000 17.186707
LeftHand -11.138124 -0.000000 -4.280567
LeftHandThumb1 -26.253704 0.000000 33.147579
RightShoulder -10.879718 18.019720 -41.387114
RightArm 17.103567 46.114576 35.506043
RightForeArm 18.845202 -0.000000 7.774491
RightHand -25.516699 0.000000 -7.765385
RightHandThumb1 -24.326973 -0.000000 -32.862282
LeftUpLeg -2.950387 -3.858956 -0.588385
LeftLeg 0.505756 -0.000000 -0.000000
LeftFoot -16.759028 15.358062 -24.505955
LeftToeBase 8.632331 -0.000000 -0.000000
RightUpLeg 0.786553 -6.994606 -3.236739
RightLeg -3.104613 -0.000000 0.000000
RightFoot -15.783885 -15.436534 10.791375
RightToeBase 4.949510 -0.000000 -0.000000
2931
root -1.309515 31.904109 -6.229837 7.656917 11.824886 3.258108
Spine -6.082388 -12.472079 -6.052475
Head -4.937507 -53.952296 3.440739
LeftShoulder -11.331957 14.929276 8.662126
LeftArm 26.342101 41.912862 -68.681662
LeftForeArm -2.475077 -0.000000 17.254495
LeftHand -11.151636 -0.000000 -4.216033
LeftHandThumb1 -26.253704 0.000000 33.147579
RightShoulder -10.804811 18.127449 -41.198924
RightArm 16.848773 46.835395 35.774170
RightForeArm 18.966673 -0.000000 8.031328
RightHand -25.553311 -0.000000 -8.308272
RightHandThumb1 -24.326973 -0.000000 -32.862282
LeftUpLeg -2.958399 -3.879218 -0.568822
LeftLeg 0.473600 -0.000000 -0.000000
LeftFoot -16.696682 15.293963 -24.491776
LeftToeBase 8.561689 -0.000000 -0.000000
RightUpLeg 0.794794 -7.032975 -3.222505
RightLeg -3.107405 -0.000000 0.000000
RightFoot -15.789020 -15.459903 10.835694
RightToeBase 4.952779 -0.000000 -0.000000
2932
root -1.310088 31.904550 -6.233708 7.669799 11.940759 3.264813
Spine -6.059281 -12.488169 -6.041806
Head -5.138891 -53.914404 3.490070
LeftShoulder -11.295660 14.874829 8.705275
LeftArm 26.359775 41.922760 -68.657031
LeftForeArm -2.478879 -0.000000 17.325908
LeftHand -11.109848 -0.000000 -4.243604
LeftHandThumb1 -26.253704 0.000000 33.147579
RightShoulder -10.752222 18.161810 -40.994095
RightArm 16.595300 47.273578 35.849443
RightForeArm 19.049637 -0.000000 8.223463
RightHand -25.268079 0.000000 -8.431370
RightHandThumb1 -24.326973 -0.000000 -32.862282
LeftUpLeg -2.975752 -3.907787 -0.564919
LeftLeg 0.442851 -0.000000 -0.000000
LeftFoot -16.643424 15.247004 -24.469319
LeftToeBase 8.601176 -0.000000 -0.000000
RightUpLeg 0.801936 -7.066990 -3.218672
RightLeg -3.116814 -0.000000 0.000000
RightFoot -15.798233 -15.514457 10.866198
RightToeBase 4.959588 -0.000000 -0.000000
2933
root -1.314252 31.904766 -6.240932 7.693095 12.106571 3.252732
Spine -6.034472 -12.559843 -6.012626
Head -5.368706 -53.818739 3.605758
LeftShoulder -11.254088 14.817480 8.780445
LeftArm 26.371005 41.920056 -68.670767
LeftForeArm -2.432433 -0.000000 17.384987
LeftHand -11.165469 -0.000000 -4.236118
LeftHandThumb1 -26.253704 0.000000 33.147579
RightShoulder -10.660978 18.251230 -40.784269
RightArm 16.151710 47.369804 35.594366
RightForeArm 19.068348 0.000000 8.313353
RightHand -24.759438 -0.000000 -8.111279
RightHandThumb1 -24.326973 -0.000000 -32.862282
LeftUpLeg -3.026252 -3.993128 -0.524395
LeftLeg 0.430283 -0.000000 -0.000000
LeftFoot -16.585355 15.179510 -24.444745
LeftToeBase 8.606235 -0.000000 -0.000000
RightUpLeg 0.781859 -7.184200 -3.179762
RightLeg -3.100119 -0.000000 0.000000
RightFoot -15.818224 -15.544925 10.893901
RightToeBase 4.997445 -0.000000 -0.000000
2934
root -1.313063 31.904691 -6.244623 7.723207 12.218999 3.264112
Spine -6.038911 -12.594127 -5.981718
Head -5.550117 -53.710306 3.657808
LeftShoulder -11.227898 14.776400 8.844760
LeftArm 26.400460 41.975027 -68.654642
LeftForeArm -2.491612 0.000000 17.441440
LeftHand -11.158102 -0.000000 -4.275078
LeftHandThumb1 -26.253704 0.000000 33.147579
RightShoulder -10.568082 18.294739 -40.631692
RightArm 15.711625 47.347535 35.310961
RightForeArm 19.102499 -0.000000 8.441383
RightHand -24.190251 -0.000000 -7.812065
RightHandThumb1 -24.326973 -0.000000 -32.862282
LeftUpLeg -3.055268 -4.011319 -0.525502
LeftLeg 0.395550 -0.000000 -0.000000
LeftFoot -16.515720 15.115204 -24.389484
LeftToeBase 8.606565 -0.000000 -0.000000
RightUpLeg 0.768727 -7.224687 -3.180790
RightLeg -3.103031 -0.000000 0.000000
RightFoot -15.829955 -15.600406 10.908296
RightToeBase 4.944030 -0.000000 -0.000000
